<svg xmlns="http://www.w3.org/2000/svg" width="32.327" height="32.327" viewBox="0 0 32.327 32.327">
  <defs>
    <style>
      .cls-1 {
        fill: rgba(230,230,230,0.75);
      }
    </style>
  </defs>
  <path id="github" class="cls-1" d="M16.164.5A16.371,16.371,0,0,0,0,17.074,16.54,16.54,0,0,0,11.052,32.8c.808.156,1.1-.357,1.1-.8,0-.394-.013-1.436-.02-2.818-4.5,1-5.444-2.224-5.444-2.224a4.368,4.368,0,0,0-1.8-2.425c-1.464-1.027.113-1.006.113-1.006a3.4,3.4,0,0,1,2.476,1.708,3.4,3.4,0,0,0,4.708,1.379A3.566,3.566,0,0,1,13.214,24.4c-3.59-.415-7.363-1.84-7.363-8.19a6.484,6.484,0,0,1,1.664-4.447,6.032,6.032,0,0,1,.141-4.387s1.354-.444,4.445,1.7a14.875,14.875,0,0,1,8.082,0c3.071-2.143,4.425-1.7,4.425-1.7a6.2,6.2,0,0,1,.162,4.387,6.511,6.511,0,0,1,1.657,4.447c0,6.367-3.778,7.768-7.375,8.176a4.023,4.023,0,0,1,1.091,3.067c0,2.218-.02,4-.02,4.538,0,.434.283.953,1.111.787a16.486,16.486,0,0,0,11.094-15.7A16.373,16.373,0,0,0,16.164.5Z" transform="translate(0 -0.5)"/>
</svg>
