<svg id="Logo" xmlns="http://www.w3.org/2000/svg" viewBox="0 0 459.4 340"><defs><style>.cls-1{fill:#ffffff;}.cls-2{fill:rgba(255,255,255,0.0);;}</style></defs><title>logo</title><path class="cls-1" d="M24.17,313.08,8.91,288.3h5.48l12.16,19.56,12-19.56H44L28.93,313.08v22.67H24.17Z" transform="translate(-8.91 -8.58)"/><path class="cls-1" d="M72,300.66h4.75v18.17c0,11.83-5.35,17.78-15.4,17.78s-15.46-5.95-15.46-17.78V300.66h4.76v17.12c0,3.7,0,6.74,1,8.85,1.65,3.57,5.29,5.62,9.71,5.62a11,11,0,0,0,7.94-3.11c2.77-3,2.71-6.34,2.71-11.36Z" transform="translate(-8.91 -8.58)"/><path class="cls-1" d="M86,287.11h4.49v48.64H86Z" transform="translate(-8.91 -8.58)"/><path class="cls-1" d="M105.2,289.89a3.81,3.81,0,0,1-3.77,3.77,3.75,3.75,0,0,1-3.7-3.77,3.69,3.69,0,0,1,3.7-3.7A3.75,3.75,0,0,1,105.2,289.89Zm-6,10.77h4.5v35.09h-4.5Z" transform="translate(-8.91 -8.58)"/><path class="cls-1" d="M118.42,289.89a3.81,3.81,0,0,1-3.77,3.77,3.75,3.75,0,0,1-3.7-3.77,3.69,3.69,0,0,1,3.7-3.7A3.75,3.75,0,0,1,118.42,289.89Zm-6,10.77H117v35.09h-4.49Z" transform="translate(-8.91 -8.58)"/><path class="cls-1" d="M156.82,300.66h4.42v35.09h-4.42v-6a17.82,17.82,0,0,1-14.15,6.87c-10.24,0-18-8.52-18-18.5a18.23,18.23,0,0,1,18.11-18.37,16.61,16.61,0,0,1,14,7.33Zm-27.5,17.58c0,7.6,6,14.27,13.82,14.27a14.21,14.21,0,1,0-13.82-14.27Z" transform="translate(-8.91 -8.58)"/><path class="cls-1" d="M190.52,288.3h4.76v17.78l19-17.78h6.41l-22.8,21.28,24.58,26.17h-6.27l-20.89-22.14v22.14h-4.76Z" transform="translate(-8.91 -8.58)"/><path class="cls-1" d="M259.32,300.66h4.43v35.09h-4.43v-6a17.78,17.78,0,0,1-14.14,6.87c-10.24,0-18-8.52-18-18.5a18.23,18.23,0,0,1,18.1-18.37,16.58,16.58,0,0,1,14,7.33Zm-27.49,17.58c0,7.6,5.95,14.27,13.81,14.27a13.83,13.83,0,0,0,14-14.14c0-8.13-6.08-14.27-13.94-14.27A13.93,13.93,0,0,0,231.83,318.24Z" transform="translate(-8.91 -8.58)"/><path class="cls-1" d="M278.43,306.94c3.63-4.76,8-7.2,13.15-7.2,7.66,0,13,5.28,13,16.32v19.69h-4.5v-19.1c0-8.26-2.57-12.82-9.38-12.82a11.24,11.24,0,0,0-9.25,4.76c-2.65,3.44-3,6.87-3,12.42v14.74h-4.5V300.66h4.5Z" transform="translate(-8.91 -8.58)"/><path class="cls-1" d="M344.84,329.74a17.78,17.78,0,0,1-14.14,6.87c-10.24,0-18-8.52-18-18.5a18.23,18.23,0,0,1,18.1-18.37,16.58,16.58,0,0,1,14,7.33v-20h4.5v48.64h-4.5Zm-27.49-11.5c0,7.6,5.95,14.27,13.82,14.27a13.78,13.78,0,0,0,13.94-14.14c0-8.13-6-14.27-13.88-14.27A13.93,13.93,0,0,0,317.35,318.24Z" transform="translate(-8.91 -8.58)"/><path class="cls-1" d="M355.75,300.66h4.76l12.1,27,11.69-27h4.83l-20.95,47.91h-4.76l6.74-15.46Z" transform="translate(-8.91 -8.58)"/><path class="cls-1" d="M429.05,328.68c-3.44,5.22-9.39,7.93-16.46,7.93-11.56,0-19.3-8.33-19.3-18.11,0-10.31,8.07-18.76,19.63-18.76,6.74,0,12.89,2.77,16.13,8.19l-3.64,2.25a15.09,15.09,0,0,0-12.69-6.08c-8.92,0-14.8,6.54-14.8,14.07s5.81,14.34,14.87,14.34a15.55,15.55,0,0,0,12.62-6.14Z" transform="translate(-8.91 -8.58)"/><path class="cls-1" d="M437.71,287.11h4.49v19.83c3.64-4.76,7.93-7.2,13.15-7.2,7.6,0,12.95,5.35,12.95,15.86v20.15h-4.49v-19.1c0-8.26-2.51-12.82-9.32-12.82a11.25,11.25,0,0,0-9.25,4.76c-2.58,3.37-3,6.81-3,12.42v14.74h-4.49Z" transform="translate(-8.91 -8.58)"/><g id="Logo-2" data-name="Logo"><g id="circle_part"><path class="cls-1" d="M236.93,112.79,171.7,29.88a120.61,120.61,0,0,0-32.54,33.59l97.77,87.29Z" transform="translate(-8.91 -8.58)"/><path class="cls-1" d="M242.93,150.67l97-88.38a120.61,120.61,0,0,0-28.2-29.86l-68.81,80.43Z" transform="translate(-8.91 -8.58)"/><path class="cls-1" d="M306.82,28.94a120,120,0,0,0-130.08-2.37L240,107Z" transform="translate(-8.91 -8.58)"/><path class="cls-1" d="M136,68.68a119.93,119.93,0,0,0,101,179.78V158.82Z" transform="translate(-8.91 -8.58)"/><path class="cls-1" d="M359.91,128.56a119.37,119.37,0,0,0-16.72-61.09l-98.77,90L316,221.35A119.76,119.76,0,0,0,359.91,128.56Z" transform="translate(-8.91 -8.58)"/><path class="cls-1" d="M242.93,248.46a119.37,119.37,0,0,0,68.23-23.36l-68.23-60.92Z" transform="translate(-8.91 -8.58)"/></g><g id="initials_lines"><path class="cls-2" d="M236.93,111.75h6v1.11l68.81-80.43q-2.42-1.8-4.92-3.49L240,107,176.74,26.57c-1.71,1.06-3.38,2.17-5,3.31l65.23,82.91Z" transform="translate(-8.91 -8.58)"/><path class="cls-2" d="M236.93,150.76,139.16,63.47Q137.5,66,136,68.68l101,90.14Z" transform="translate(-8.91 -8.58)"/><path class="cls-2" d="M242.93,158.8v5.38l68.23,60.92c1.64-1.22,3.25-2.46,4.83-3.75l-71.57-63.9Z" transform="translate(-8.91 -8.58)"/><polygon class="cls-2" points="234.03 142.09 234.03 104.28 230.93 107.91 228.02 104.21 228.02 142.19 231 144.85 234.03 142.09"/><path class="cls-2" d="M236.93,158.82v89.64c1,0,2,.08,3,.08s2,0,3-.08V164.18Z" transform="translate(-8.91 -8.58)"/><polygon class="cls-2" points="234.03 104.28 234.03 103.17 228.02 103.17 228.02 104.21 230.93 107.91 234.03 104.28"/><polygon class="cls-2" points="229 146.67 231 144.85 228.02 142.19 228.02 150.24 234.03 155.6 234.03 150.22 233.05 151.12 229 146.67"/><path class="cls-2" d="M242.93,156.13l1.49,1.32,98.77-90c-1-1.76-2.12-3.48-3.25-5.18l-97,88.38Z" transform="translate(-8.91 -8.58)"/><polygon class="cls-2" points="234.03 150.22 235.51 148.87 234.03 147.55 234.03 150.22"/><polygon class="cls-2" points="234.03 147.55 234.03 142.09 231 144.85 234.03 147.55"/><polygon class="cls-2" points="231 144.85 229 146.67 233.05 151.12 234.03 150.22 234.03 147.55 231 144.85"/></g></g></svg>